<svg xmlns="http://www.w3.org/2000/svg" viewBox="0 0 411.5 171.5">
  <defs>
    <linearGradient id="gradient" gradientTransform="rotate(145)">
      <stop offset="5%" stop-color="#d48115" />
      <stop offset="95%" stop-color="#f89c33" />
    </linearGradient>
  </defs>
  <path fill="url('#gradient')" d="m108.25,51.5c-1.5,0-2.79-.54-3.88-1.62s-1.62-2.38-1.62-3.88v-1.75c0-2.83-.92-5.21-2.75-7.12-1.84-1.91-4.17-2.88-7-2.88h-49c-2.67,0-4.96.96-6.88,2.88s-2.88,4.29-2.88,7.12v14.5c0,2.84.96,5.21,2.88,7.12,1.91,1.92,4.21,2.88,6.88,2.88h49c6,0,11.66,1.17,17,3.5,5.33,2.34,10,5.5,14,9.5s7.16,8.67,9.5,14c2.33,5.34,3.5,11,3.5,17v14.5c0,6.17-1.17,11.92-3.5,17.25-2.34,5.34-5.5,10-9.5,14s-8.67,7.17-14,9.5c-5.34,2.34-11,3.5-17,3.5h-49c-6,0-11.67-1.16-17-3.5-5.34-2.33-10-5.5-14-9.5s-7.17-8.66-9.5-14c-2.34-5.33-3.5-11.08-3.5-17.25v-1.75c0-1.5.54-2.79,1.62-3.88s2.38-1.62,3.88-1.62h23.25c1.5,0,2.79.54,3.88,1.62,1.08,1.09,1.62,2.38,1.62,3.88v1.75c0,2.84.96,5.21,2.88,7.12,1.91,1.92,4.21,2.88,6.88,2.88h49c2.83,0,5.16-.96,7-2.88,1.83-1.91,2.75-4.29,2.75-7.12v-14.5c0-2.83-.92-5.16-2.75-7-1.84-1.83-4.17-2.75-7-2.75h-49c-6,0-11.67-1.16-17-3.5-5.34-2.33-10-5.5-14-9.5s-7.17-8.71-9.5-14.12C1.17,70.47.01,64.75.01,58.75v-14.5C.01,38.09,1.17,32.34,3.51,27c2.33-5.33,5.5-10,9.5-14s8.66-7.16,14-9.5C32.34,1.17,38.01,0,44.01,0h49c6,0,11.66,1.17,17,3.5,5.33,2.34,10,5.5,14,9.5s7.16,8.67,9.5,14c2.33,5.34,3.5,11.09,3.5,17.25v1.75c0,1.5-.5,2.79-1.5,3.88s-2.25,1.62-3.75,1.62h-23.51Zm166.01-6c0,1.5-.42,3.12-1.25,4.88-.84,1.75-1.84,3.12-3,4.12l-37.5,31.25,37.5,31.5c1.16.84,2.16,2.12,3,3.88.83,1.75,1.25,3.38,1.25,4.88v40.25c0,1.34-.54,2.54-1.62,3.62s-2.38,1.62-3.88,1.62h-23.5c-1.5,0-2.79-.54-3.88-1.62s-1.62-2.29-1.62-3.62v-24c0-1.5-.38-3.12-1.12-4.88s-1.71-3.12-2.88-4.12l-30.25-25-30,25c-1.17,1-2.17,2.38-3,4.12-.84,1.75-1.25,3.38-1.25,4.88v24c0,1.34-.5,2.54-1.5,3.62-1,1.09-2.25,1.62-3.75,1.62h-23.5c-1.5,0-2.79-.54-3.88-1.62-1.09-1.08-1.62-2.29-1.62-3.62v-40.25c0-1.5.38-3.12,1.12-4.88s1.79-3.04,3.12-3.88l37.5-31.5-37.5-31.25c-1.34-1-2.38-2.38-3.12-4.12s-1.12-3.38-1.12-4.88V5.5c0-1.5.54-2.79,1.62-3.88s2.38-1.62,3.88-1.62h23.5c1.5,0,2.75.54,3.75,1.62,1,1.09,1.5,2.38,1.5,3.88v24c0,1.5.41,3.12,1.25,4.88.83,1.75,1.83,3.12,3,4.12l30,25,30.25-25c1.16-1,2.12-2.38,2.88-4.12s1.12-3.38,1.12-4.88V5.5c0-1.5.54-2.79,1.62-3.88s2.38-1.62,3.88-1.62h23.5c1.5,0,2.79.54,3.88,1.62,1.08,1.09,1.62,2.38,1.62,3.88v40Zm137.24,13.13c0,5.17-.84,10.04-2.5,14.62-1.67,4.59-3.92,8.79-6.75,12.62,2.83,3.67,5.08,7.79,6.75,12.38,1.66,4.59,2.5,9.46,2.5,14.62v14.5c0,6-1.17,11.67-3.5,17-2.34,5.34-5.5,10-9.5,14s-8.71,7.17-14.12,9.5c-5.42,2.34-11.12,3.5-17.12,3.5h-48.75c-6.17,0-11.92-1.16-17.25-3.5-5.34-2.33-10-5.5-14-9.5s-7.17-8.66-9.5-14c-2.34-5.33-3.5-11-3.5-17v-2c0-1.5.54-2.75,1.62-3.75s2.38-1.5,3.88-1.5h23.25c1.5,0,2.79.5,3.88,1.5,1.08,1,1.62,2.25,1.62,3.75v2c0,2.84.96,5.17,2.88,7,1.91,1.84,4.29,2.75,7.12,2.75h48.75c2.83,0,5.16-.91,7-2.75s2.75-4.16,2.75-7v-14.5c0-2.83-.92-5.21-2.75-7.12-1.84-1.91-4.17-2.88-7-2.88h-53.25c-1.5,0-2.79-.54-3.88-1.62s-1.62-2.38-1.62-3.88v-23.25c0-1.5.54-2.79,1.62-3.88s2.38-1.62,3.88-1.62h53.25c2.83,0,5.16-.96,7-2.88,1.83-1.91,2.75-4.29,2.75-7.12v-14.5c0-2.83-.92-5.16-2.75-7-1.84-1.83-4.17-2.75-7-2.75h-48.75c-2.84,0-5.21.92-7.12,2.75-1.92,1.84-2.88,4.17-2.88,7v2c0,1.5-.54,2.75-1.62,3.75-1.09,1-2.38,1.5-3.88,1.5h-23.25c-1.5,0-2.79-.5-3.88-1.5s-1.62-2.25-1.62-3.75v-2c0-6,1.16-11.66,3.5-17,2.33-5.33,5.5-10,9.5-14s8.66-7.16,14-9.5c5.33-2.33,11.08-3.5,17.25-3.5h48.75c6,0,11.71,1.17,17.12,3.5,5.41,2.34,10.12,5.5,14.12,9.5s7.16,8.67,9.5,14c2.33,5.34,3.5,11,3.5,17v14.5h0Z"/>
</svg>